<svg xmlns="http://www.w3.org/2000/svg" fill="none" height="500" width="500">




<text x="0" y="498" font-family="Verdana" font-size="12" fill="black">0.0</text>
<path d="M0,500 L10,500 M11,500 L21,500 M22,500 L32,500 M33,500 L43,500 M44,500 L54,500 M55,500 L65,500 M66,500 L76,500 M77,500 L87,500 M88,500 L98,500 M99,500 L109,500 M110,500 L120,500 M121,500 L131,500 M132,500 L142,500 M143,500 L153,500 M154,500 L164,500 M165,500 L175,500 M176,500 L186,500 M187,500 L197,500 M198,500 L208,500 M209,500 L219,500 M220,500 L230,500 M231,500 L241,500 M242,500 L252,500 M253,500 L263,500 M264,500 L274,500 M275,500 L285,500 M286,500 L296,500 M297,500 L307,500 M308,500 L318,500 M319,500 L329,500 M330,500 L340,500 M341,500 L351,500 M352,500 L362,500 M363,500 L373,500 M374,500 L384,500 M385,500 L395,500 M396,500 L406,500 M407,500 L417,500 M418,500 L428,500 M429,500 L439,500 M440,500 L450,500 M451,500 L461,500 M462,500 L472,500 M473,500 L483,500 M484,500 L494,500 M495,500 L505,500 M506,500 " stroke="black" stroke-width="1"/>
<path opacity="0.5" d="M0,475 L10,475 M11,475 L21,475 M22,475 L32,475 M33,475 L43,475 M44,475 L54,475 M55,475 L65,475 M66,475 L76,475 M77,475 L87,475 M88,475 L98,475 M99,475 L109,475 M110,475 L120,475 M121,475 L131,475 M132,475 L142,475 M143,475 L153,475 M154,475 L164,475 M165,475 L175,475 M176,475 L186,475 M187,475 L197,475 M198,475 L208,475 M209,475 L219,475 M220,475 L230,475 M231,475 L241,475 M242,475 L252,475 M253,475 L263,475 M264,475 L274,475 M275,475 L285,475 M286,475 L296,475 M297,475 L307,475 M308,475 L318,475 M319,475 L329,475 M330,475 L340,475 M341,475 L351,475 M352,475 L362,475 M363,475 L373,475 M374,475 L384,475 M385,475 L395,475 M396,475 L406,475 M407,475 L417,475 M418,475 L428,475 M429,475 L439,475 M440,475 L450,475 M451,475 L461,475 M462,475 L472,475 M473,475 L483,475 M484,475 L494,475 M495,475 L505,475 M506,475 " stroke="black" stroke-width="1"/>
<text x="0" y="448" font-family="Verdana" font-size="12" fill="black">10.0</text>
<path d="M0,450 L10,450 M11,450 L21,450 M22,450 L32,450 M33,450 L43,450 M44,450 L54,450 M55,450 L65,450 M66,450 L76,450 M77,450 L87,450 M88,450 L98,450 M99,450 L109,450 M110,450 L120,450 M121,450 L131,450 M132,450 L142,450 M143,450 L153,450 M154,450 L164,450 M165,450 L175,450 M176,450 L186,450 M187,450 L197,450 M198,450 L208,450 M209,450 L219,450 M220,450 L230,450 M231,450 L241,450 M242,450 L252,450 M253,450 L263,450 M264,450 L274,450 M275,450 L285,450 M286,450 L296,450 M297,450 L307,450 M308,450 L318,450 M319,450 L329,450 M330,450 L340,450 M341,450 L351,450 M352,450 L362,450 M363,450 L373,450 M374,450 L384,450 M385,450 L395,450 M396,450 L406,450 M407,450 L417,450 M418,450 L428,450 M429,450 L439,450 M440,450 L450,450 M451,450 L461,450 M462,450 L472,450 M473,450 L483,450 M484,450 L494,450 M495,450 L505,450 M506,450 " stroke="black" stroke-width="1"/>
<path opacity="0.5" d="M0,425 L10,425 M11,425 L21,425 M22,425 L32,425 M33,425 L43,425 M44,425 L54,425 M55,425 L65,425 M66,425 L76,425 M77,425 L87,425 M88,425 L98,425 M99,425 L109,425 M110,425 L120,425 M121,425 L131,425 M132,425 L142,425 M143,425 L153,425 M154,425 L164,425 M165,425 L175,425 M176,425 L186,425 M187,425 L197,425 M198,425 L208,425 M209,425 L219,425 M220,425 L230,425 M231,425 L241,425 M242,425 L252,425 M253,425 L263,425 M264,425 L274,425 M275,425 L285,425 M286,425 L296,425 M297,425 L307,425 M308,425 L318,425 M319,425 L329,425 M330,425 L340,425 M341,425 L351,425 M352,425 L362,425 M363,425 L373,425 M374,425 L384,425 M385,425 L395,425 M396,425 L406,425 M407,425 L417,425 M418,425 L428,425 M429,425 L439,425 M440,425 L450,425 M451,425 L461,425 M462,425 L472,425 M473,425 L483,425 M484,425 L494,425 M495,425 L505,425 M506,425 " stroke="black" stroke-width="1"/>
<text x="0" y="398" font-family="Verdana" font-size="12" fill="black">20.0</text>
<path d="M0,400 L10,400 M11,400 L21,400 M22,400 L32,400 M33,400 L43,400 M44,400 L54,400 M55,400 L65,400 M66,400 L76,400 M77,400 L87,400 M88,400 L98,400 M99,400 L109,400 M110,400 L120,400 M121,400 L131,400 M132,400 L142,400 M143,400 L153,400 M154,400 L164,400 M165,400 L175,400 M176,400 L186,400 M187,400 L197,400 M198,400 L208,400 M209,400 L219,400 M220,400 L230,400 M231,400 L241,400 M242,400 L252,400 M253,400 L263,400 M264,400 L274,400 M275,400 L285,400 M286,400 L296,400 M297,400 L307,400 M308,400 L318,400 M319,400 L329,400 M330,400 L340,400 M341,400 L351,400 M352,400 L362,400 M363,400 L373,400 M374,400 L384,400 M385,400 L395,400 M396,400 L406,400 M407,400 L417,400 M418,400 L428,400 M429,400 L439,400 M440,400 L450,400 M451,400 L461,400 M462,400 L472,400 M473,400 L483,400 M484,400 L494,400 M495,400 L505,400 M506,400 " stroke="black" stroke-width="1"/>
<path opacity="0.5" d="M0,375 L10,375 M11,375 L21,375 M22,375 L32,375 M33,375 L43,375 M44,375 L54,375 M55,375 L65,375 M66,375 L76,375 M77,375 L87,375 M88,375 L98,375 M99,375 L109,375 M110,375 L120,375 M121,375 L131,375 M132,375 L142,375 M143,375 L153,375 M154,375 L164,375 M165,375 L175,375 M176,375 L186,375 M187,375 L197,375 M198,375 L208,375 M209,375 L219,375 M220,375 L230,375 M231,375 L241,375 M242,375 L252,375 M253,375 L263,375 M264,375 L274,375 M275,375 L285,375 M286,375 L296,375 M297,375 L307,375 M308,375 L318,375 M319,375 L329,375 M330,375 L340,375 M341,375 L351,375 M352,375 L362,375 M363,375 L373,375 M374,375 L384,375 M385,375 L395,375 M396,375 L406,375 M407,375 L417,375 M418,375 L428,375 M429,375 L439,375 M440,375 L450,375 M451,375 L461,375 M462,375 L472,375 M473,375 L483,375 M484,375 L494,375 M495,375 L505,375 M506,375 " stroke="black" stroke-width="1"/>
<text x="0" y="348" font-family="Verdana" font-size="12" fill="black">30.0</text>
<path d="M0,350 L10,350 M11,350 L21,350 M22,350 L32,350 M33,350 L43,350 M44,350 L54,350 M55,350 L65,350 M66,350 L76,350 M77,350 L87,350 M88,350 L98,350 M99,350 L109,350 M110,350 L120,350 M121,350 L131,350 M132,350 L142,350 M143,350 L153,350 M154,350 L164,350 M165,350 L175,350 M176,350 L186,350 M187,350 L197,350 M198,350 L208,350 M209,350 L219,350 M220,350 L230,350 M231,350 L241,350 M242,350 L252,350 M253,350 L263,350 M264,350 L274,350 M275,350 L285,350 M286,350 L296,350 M297,350 L307,350 M308,350 L318,350 M319,350 L329,350 M330,350 L340,350 M341,350 L351,350 M352,350 L362,350 M363,350 L373,350 M374,350 L384,350 M385,350 L395,350 M396,350 L406,350 M407,350 L417,350 M418,350 L428,350 M429,350 L439,350 M440,350 L450,350 M451,350 L461,350 M462,350 L472,350 M473,350 L483,350 M484,350 L494,350 M495,350 L505,350 M506,350 " stroke="black" stroke-width="1"/>
<path opacity="0.5" d="M0,325 L10,325 M11,325 L21,325 M22,325 L32,325 M33,325 L43,325 M44,325 L54,325 M55,325 L65,325 M66,325 L76,325 M77,325 L87,325 M88,325 L98,325 M99,325 L109,325 M110,325 L120,325 M121,325 L131,325 M132,325 L142,325 M143,325 L153,325 M154,325 L164,325 M165,325 L175,325 M176,325 L186,325 M187,325 L197,325 M198,325 L208,325 M209,325 L219,325 M220,325 L230,325 M231,325 L241,325 M242,325 L252,325 M253,325 L263,325 M264,325 L274,325 M275,325 L285,325 M286,325 L296,325 M297,325 L307,325 M308,325 L318,325 M319,325 L329,325 M330,325 L340,325 M341,325 L351,325 M352,325 L362,325 M363,325 L373,325 M374,325 L384,325 M385,325 L395,325 M396,325 L406,325 M407,325 L417,325 M418,325 L428,325 M429,325 L439,325 M440,325 L450,325 M451,325 L461,325 M462,325 L472,325 M473,325 L483,325 M484,325 L494,325 M495,325 L505,325 M506,325 " stroke="black" stroke-width="1"/>
<text x="0" y="298" font-family="Verdana" font-size="12" fill="black">40.0</text>
<path d="M0,300 L10,300 M11,300 L21,300 M22,300 L32,300 M33,300 L43,300 M44,300 L54,300 M55,300 L65,300 M66,300 L76,300 M77,300 L87,300 M88,300 L98,300 M99,300 L109,300 M110,300 L120,300 M121,300 L131,300 M132,300 L142,300 M143,300 L153,300 M154,300 L164,300 M165,300 L175,300 M176,300 L186,300 M187,300 L197,300 M198,300 L208,300 M209,300 L219,300 M220,300 L230,300 M231,300 L241,300 M242,300 L252,300 M253,300 L263,300 M264,300 L274,300 M275,300 L285,300 M286,300 L296,300 M297,300 L307,300 M308,300 L318,300 M319,300 L329,300 M330,300 L340,300 M341,300 L351,300 M352,300 L362,300 M363,300 L373,300 M374,300 L384,300 M385,300 L395,300 M396,300 L406,300 M407,300 L417,300 M418,300 L428,300 M429,300 L439,300 M440,300 L450,300 M451,300 L461,300 M462,300 L472,300 M473,300 L483,300 M484,300 L494,300 M495,300 L505,300 M506,300 " stroke="black" stroke-width="1"/>
<path opacity="0.5" d="M0,275 L10,275 M11,275 L21,275 M22,275 L32,275 M33,275 L43,275 M44,275 L54,275 M55,275 L65,275 M66,275 L76,275 M77,275 L87,275 M88,275 L98,275 M99,275 L109,275 M110,275 L120,275 M121,275 L131,275 M132,275 L142,275 M143,275 L153,275 M154,275 L164,275 M165,275 L175,275 M176,275 L186,275 M187,275 L197,275 M198,275 L208,275 M209,275 L219,275 M220,275 L230,275 M231,275 L241,275 M242,275 L252,275 M253,275 L263,275 M264,275 L274,275 M275,275 L285,275 M286,275 L296,275 M297,275 L307,275 M308,275 L318,275 M319,275 L329,275 M330,275 L340,275 M341,275 L351,275 M352,275 L362,275 M363,275 L373,275 M374,275 L384,275 M385,275 L395,275 M396,275 L406,275 M407,275 L417,275 M418,275 L428,275 M429,275 L439,275 M440,275 L450,275 M451,275 L461,275 M462,275 L472,275 M473,275 L483,275 M484,275 L494,275 M495,275 L505,275 M506,275 " stroke="black" stroke-width="1"/>
<text x="0" y="248" font-family="Verdana" font-size="12" fill="black">50.0</text>
<path d="M0,250 L10,250 M11,250 L21,250 M22,250 L32,250 M33,250 L43,250 M44,250 L54,250 M55,250 L65,250 M66,250 L76,250 M77,250 L87,250 M88,250 L98,250 M99,250 L109,250 M110,250 L120,250 M121,250 L131,250 M132,250 L142,250 M143,250 L153,250 M154,250 L164,250 M165,250 L175,250 M176,250 L186,250 M187,250 L197,250 M198,250 L208,250 M209,250 L219,250 M220,250 L230,250 M231,250 L241,250 M242,250 L252,250 M253,250 L263,250 M264,250 L274,250 M275,250 L285,250 M286,250 L296,250 M297,250 L307,250 M308,250 L318,250 M319,250 L329,250 M330,250 L340,250 M341,250 L351,250 M352,250 L362,250 M363,250 L373,250 M374,250 L384,250 M385,250 L395,250 M396,250 L406,250 M407,250 L417,250 M418,250 L428,250 M429,250 L439,250 M440,250 L450,250 M451,250 L461,250 M462,250 L472,250 M473,250 L483,250 M484,250 L494,250 M495,250 L505,250 M506,250 " stroke="black" stroke-width="1"/>
<path opacity="0.5" d="M0,225 L10,225 M11,225 L21,225 M22,225 L32,225 M33,225 L43,225 M44,225 L54,225 M55,225 L65,225 M66,225 L76,225 M77,225 L87,225 M88,225 L98,225 M99,225 L109,225 M110,225 L120,225 M121,225 L131,225 M132,225 L142,225 M143,225 L153,225 M154,225 L164,225 M165,225 L175,225 M176,225 L186,225 M187,225 L197,225 M198,225 L208,225 M209,225 L219,225 M220,225 L230,225 M231,225 L241,225 M242,225 L252,225 M253,225 L263,225 M264,225 L274,225 M275,225 L285,225 M286,225 L296,225 M297,225 L307,225 M308,225 L318,225 M319,225 L329,225 M330,225 L340,225 M341,225 L351,225 M352,225 L362,225 M363,225 L373,225 M374,225 L384,225 M385,225 L395,225 M396,225 L406,225 M407,225 L417,225 M418,225 L428,225 M429,225 L439,225 M440,225 L450,225 M451,225 L461,225 M462,225 L472,225 M473,225 L483,225 M484,225 L494,225 M495,225 L505,225 M506,225 " stroke="black" stroke-width="1"/>
<text x="0" y="198" font-family="Verdana" font-size="12" fill="black">60.0</text>
<path d="M0,200 L10,200 M11,200 L21,200 M22,200 L32,200 M33,200 L43,200 M44,200 L54,200 M55,200 L65,200 M66,200 L76,200 M77,200 L87,200 M88,200 L98,200 M99,200 L109,200 M110,200 L120,200 M121,200 L131,200 M132,200 L142,200 M143,200 L153,200 M154,200 L164,200 M165,200 L175,200 M176,200 L186,200 M187,200 L197,200 M198,200 L208,200 M209,200 L219,200 M220,200 L230,200 M231,200 L241,200 M242,200 L252,200 M253,200 L263,200 M264,200 L274,200 M275,200 L285,200 M286,200 L296,200 M297,200 L307,200 M308,200 L318,200 M319,200 L329,200 M330,200 L340,200 M341,200 L351,200 M352,200 L362,200 M363,200 L373,200 M374,200 L384,200 M385,200 L395,200 M396,200 L406,200 M407,200 L417,200 M418,200 L428,200 M429,200 L439,200 M440,200 L450,200 M451,200 L461,200 M462,200 L472,200 M473,200 L483,200 M484,200 L494,200 M495,200 L505,200 M506,200 " stroke="black" stroke-width="1"/>
<path opacity="0.5" d="M0,175 L10,175 M11,175 L21,175 M22,175 L32,175 M33,175 L43,175 M44,175 L54,175 M55,175 L65,175 M66,175 L76,175 M77,175 L87,175 M88,175 L98,175 M99,175 L109,175 M110,175 L120,175 M121,175 L131,175 M132,175 L142,175 M143,175 L153,175 M154,175 L164,175 M165,175 L175,175 M176,175 L186,175 M187,175 L197,175 M198,175 L208,175 M209,175 L219,175 M220,175 L230,175 M231,175 L241,175 M242,175 L252,175 M253,175 L263,175 M264,175 L274,175 M275,175 L285,175 M286,175 L296,175 M297,175 L307,175 M308,175 L318,175 M319,175 L329,175 M330,175 L340,175 M341,175 L351,175 M352,175 L362,175 M363,175 L373,175 M374,175 L384,175 M385,175 L395,175 M396,175 L406,175 M407,175 L417,175 M418,175 L428,175 M429,175 L439,175 M440,175 L450,175 M451,175 L461,175 M462,175 L472,175 M473,175 L483,175 M484,175 L494,175 M495,175 L505,175 M506,175 " stroke="black" stroke-width="1"/>
<text x="0" y="148" font-family="Verdana" font-size="12" fill="black">70.0</text>
<path d="M0,150 L10,150 M11,150 L21,150 M22,150 L32,150 M33,150 L43,150 M44,150 L54,150 M55,150 L65,150 M66,150 L76,150 M77,150 L87,150 M88,150 L98,150 M99,150 L109,150 M110,150 L120,150 M121,150 L131,150 M132,150 L142,150 M143,150 L153,150 M154,150 L164,150 M165,150 L175,150 M176,150 L186,150 M187,150 L197,150 M198,150 L208,150 M209,150 L219,150 M220,150 L230,150 M231,150 L241,150 M242,150 L252,150 M253,150 L263,150 M264,150 L274,150 M275,150 L285,150 M286,150 L296,150 M297,150 L307,150 M308,150 L318,150 M319,150 L329,150 M330,150 L340,150 M341,150 L351,150 M352,150 L362,150 M363,150 L373,150 M374,150 L384,150 M385,150 L395,150 M396,150 L406,150 M407,150 L417,150 M418,150 L428,150 M429,150 L439,150 M440,150 L450,150 M451,150 L461,150 M462,150 L472,150 M473,150 L483,150 M484,150 L494,150 M495,150 L505,150 M506,150 " stroke="black" stroke-width="1"/>
<path opacity="0.5" d="M0,125 L10,125 M11,125 L21,125 M22,125 L32,125 M33,125 L43,125 M44,125 L54,125 M55,125 L65,125 M66,125 L76,125 M77,125 L87,125 M88,125 L98,125 M99,125 L109,125 M110,125 L120,125 M121,125 L131,125 M132,125 L142,125 M143,125 L153,125 M154,125 L164,125 M165,125 L175,125 M176,125 L186,125 M187,125 L197,125 M198,125 L208,125 M209,125 L219,125 M220,125 L230,125 M231,125 L241,125 M242,125 L252,125 M253,125 L263,125 M264,125 L274,125 M275,125 L285,125 M286,125 L296,125 M297,125 L307,125 M308,125 L318,125 M319,125 L329,125 M330,125 L340,125 M341,125 L351,125 M352,125 L362,125 M363,125 L373,125 M374,125 L384,125 M385,125 L395,125 M396,125 L406,125 M407,125 L417,125 M418,125 L428,125 M429,125 L439,125 M440,125 L450,125 M451,125 L461,125 M462,125 L472,125 M473,125 L483,125 M484,125 L494,125 M495,125 L505,125 M506,125 " stroke="black" stroke-width="1"/>
<text x="0" y="98" font-family="Verdana" font-size="12" fill="black">80.0</text>
<path d="M0,100 L10,100 M11,100 L21,100 M22,100 L32,100 M33,100 L43,100 M44,100 L54,100 M55,100 L65,100 M66,100 L76,100 M77,100 L87,100 M88,100 L98,100 M99,100 L109,100 M110,100 L120,100 M121,100 L131,100 M132,100 L142,100 M143,100 L153,100 M154,100 L164,100 M165,100 L175,100 M176,100 L186,100 M187,100 L197,100 M198,100 L208,100 M209,100 L219,100 M220,100 L230,100 M231,100 L241,100 M242,100 L252,100 M253,100 L263,100 M264,100 L274,100 M275,100 L285,100 M286,100 L296,100 M297,100 L307,100 M308,100 L318,100 M319,100 L329,100 M330,100 L340,100 M341,100 L351,100 M352,100 L362,100 M363,100 L373,100 M374,100 L384,100 M385,100 L395,100 M396,100 L406,100 M407,100 L417,100 M418,100 L428,100 M429,100 L439,100 M440,100 L450,100 M451,100 L461,100 M462,100 L472,100 M473,100 L483,100 M484,100 L494,100 M495,100 L505,100 M506,100 " stroke="black" stroke-width="1"/>
<path opacity="0.5" d="M0,75 L10,75 M11,75 L21,75 M22,75 L32,75 M33,75 L43,75 M44,75 L54,75 M55,75 L65,75 M66,75 L76,75 M77,75 L87,75 M88,75 L98,75 M99,75 L109,75 M110,75 L120,75 M121,75 L131,75 M132,75 L142,75 M143,75 L153,75 M154,75 L164,75 M165,75 L175,75 M176,75 L186,75 M187,75 L197,75 M198,75 L208,75 M209,75 L219,75 M220,75 L230,75 M231,75 L241,75 M242,75 L252,75 M253,75 L263,75 M264,75 L274,75 M275,75 L285,75 M286,75 L296,75 M297,75 L307,75 M308,75 L318,75 M319,75 L329,75 M330,75 L340,75 M341,75 L351,75 M352,75 L362,75 M363,75 L373,75 M374,75 L384,75 M385,75 L395,75 M396,75 L406,75 M407,75 L417,75 M418,75 L428,75 M429,75 L439,75 M440,75 L450,75 M451,75 L461,75 M462,75 L472,75 M473,75 L483,75 M484,75 L494,75 M495,75 L505,75 M506,75 " stroke="black" stroke-width="1"/>
<text x="0" y="48" font-family="Verdana" font-size="12" fill="black">90.0</text>
<path d="M0,50 L10,50 M11,50 L21,50 M22,50 L32,50 M33,50 L43,50 M44,50 L54,50 M55,50 L65,50 M66,50 L76,50 M77,50 L87,50 M88,50 L98,50 M99,50 L109,50 M110,50 L120,50 M121,50 L131,50 M132,50 L142,50 M143,50 L153,50 M154,50 L164,50 M165,50 L175,50 M176,50 L186,50 M187,50 L197,50 M198,50 L208,50 M209,50 L219,50 M220,50 L230,50 M231,50 L241,50 M242,50 L252,50 M253,50 L263,50 M264,50 L274,50 M275,50 L285,50 M286,50 L296,50 M297,50 L307,50 M308,50 L318,50 M319,50 L329,50 M330,50 L340,50 M341,50 L351,50 M352,50 L362,50 M363,50 L373,50 M374,50 L384,50 M385,50 L395,50 M396,50 L406,50 M407,50 L417,50 M418,50 L428,50 M429,50 L439,50 M440,50 L450,50 M451,50 L461,50 M462,50 L472,50 M473,50 L483,50 M484,50 L494,50 M495,50 L505,50 M506,50 " stroke="black" stroke-width="1"/>
<path opacity="0.5" d="M0,25 L10,25 M11,25 L21,25 M22,25 L32,25 M33,25 L43,25 M44,25 L54,25 M55,25 L65,25 M66,25 L76,25 M77,25 L87,25 M88,25 L98,25 M99,25 L109,25 M110,25 L120,25 M121,25 L131,25 M132,25 L142,25 M143,25 L153,25 M154,25 L164,25 M165,25 L175,25 M176,25 L186,25 M187,25 L197,25 M198,25 L208,25 M209,25 L219,25 M220,25 L230,25 M231,25 L241,25 M242,25 L252,25 M253,25 L263,25 M264,25 L274,25 M275,25 L285,25 M286,25 L296,25 M297,25 L307,25 M308,25 L318,25 M319,25 L329,25 M330,25 L340,25 M341,25 L351,25 M352,25 L362,25 M363,25 L373,25 M374,25 L384,25 M385,25 L395,25 M396,25 L406,25 M407,25 L417,25 M418,25 L428,25 M429,25 L439,25 M440,25 L450,25 M451,25 L461,25 M462,25 L472,25 M473,25 L483,25 M484,25 L494,25 M495,25 L505,25 M506,25 " stroke="black" stroke-width="1"/>




</svg>
